<?xml version="1.0" standalone="no"?>
<!DOCTYPE svg PUBLIC "-//W3C//DTD SVG 20010904//EN"
 "http://www.w3.org/TR/2001/REC-SVG-20010904/DTD/svg10.dtd">
<svg version="1.0" xmlns="http://www.w3.org/2000/svg"
 width="3195.000000pt" height="1634.000000pt" viewBox="0 0 3195.000000 1634.000000"
 preserveAspectRatio="xMidYMid meet">

<g transform="translate(0.000000,1634.000000) scale(0.100000,-0.100000)"
fill="#557799" stroke="none">
<path d="M31765 16319 c-320 -35 -3870 -322 -4375 -353 -255 -16 -302 -25
-325 -60 -23 -35 -61 -195 -89 -377 -14 -90 -82 -603 -151 -1139 -69 -536
-191 -1472 -270 -2080 -193 -1480 -330 -2537 -415 -3220 -79 -631 -260 -2134
-257 -2136 1 0 137 12 302 27 1075 102 4423 384 4693 396 78 3 145 10 148 15
10 16 194 1665 194 1738 0 29 -2 30 -43 30 -64 0 -2654 -239 -2879 -266 l-58
-7 0 74 c0 89 22 343 56 654 40 365 132 1107 139 1113 3 3 164 21 358 39 907
85 1782 163 1982 178 121 9 230 20 243 25 44 18 53 69 127 650 59 471 100 837
111 994 l7 99 -99 -7 c-186 -13 -719 -56 -999 -81 -571 -51 -1231 -105 -1357
-112 l-131 -6 7 84 c11 141 64 605 134 1189 l67 555 40 7 c104 19 818 86 1825
173 342 29 766 70 893 87 75 9 90 14 98 32 27 64 203 1520 197 1633 l-3 58
-45 1 c-25 1 -81 -2 -125 -7z"/>
<path d="M23665 15610 c-646 -32 -3010 -222 -3032 -244 -20 -19 -1134 -8909
-1119 -8924 12 -11 313 -7 466 7 250 22 1565 152 1587 156 12 3 24 13 27 23 3
9 60 454 126 987 183 1471 253 1936 297 1987 28 31 222 68 603 113 1011 119
1811 437 2391 950 606 534 1006 1473 1089 2554 15 202 13 597 -5 768 -74 703
-353 1138 -910 1416 -208 103 -393 160 -625 192 -141 19 -635 27 -895 15z
m-111 -1635 c166 -36 292 -169 341 -359 51 -199 45 -512 -16 -930 -77 -531
-198 -841 -408 -1046 -114 -112 -218 -159 -506 -233 -224 -58 -412 -88 -580
-94 -201 -7 -193 -13 -177 143 13 122 78 667 176 1469 31 248 65 542 76 655
27 272 35 307 74 346 48 48 96 57 351 65 312 9 583 3 669 -16z"/>
<path d="M17404 15074 c-161 -13 -554 -46 -875 -73 -321 -28 -681 -58 -799
-66 -268 -19 -271 -19 -303 -53 -38 -39 -62 -98 -342 -812 -680 -1734 -979
-2491 -1890 -4780 -1046 -2626 -1415 -3559 -1415 -3575 0 -2 28 -2 63 1 34 2
152 11 262 20 426 32 1402 123 1722 160 l143 17 21 56 c12 31 86 241 166 466
173 492 277 780 352 974 52 134 58 145 86 152 84 21 843 104 1499 164 504 45
706 59 718 47 12 -12 53 -247 128 -742 61 -401 110 -701 132 -799 l12 -54 120
7 c408 23 1627 139 1911 182 132 20 133 20 129 47 -2 12 -29 175 -59 362 -30
187 -84 527 -120 755 -36 228 -136 845 -221 1370 -85 525 -219 1360 -299 1855
-131 817 -198 1245 -431 2745 -136 878 -243 1494 -274 1575 -9 23 -14 25 -77
24 -38 -1 -199 -12 -359 -25z m-1099 -2506 c24 -73 336 -2920 335 -3058 0 -42
-12 -49 -110 -64 -202 -32 -939 -106 -1212 -122 l-118 -7 0 25 c0 13 9 58 20
99 16 63 730 2191 935 2789 113 329 136 380 150 338z"/>
<path d="M13685 14783 c-27 -2 -221 -19 -430 -38 -209 -20 -630 -58 -935 -86
-305 -28 -555 -51 -556 -52 -1 -1 -61 -191 -133 -422 -626 -1990 -985 -3032
-1741 -5050 -303 -808 -364 -956 -401 -963 -12 -2 -18 7 -22 35 -12 77 -47
437 -77 788 -58 687 -132 1433 -326 3290 -161 1546 -198 1865 -229 1972 -25
86 -23 85 -296 68 -470 -31 -1685 -126 -1859 -145 -47 -6 -93 -10 -102 -10
-14 0 -18 -8 -18 -35 0 -60 104 -801 300 -2140 137 -937 329 -2264 566 -3910
233 -1622 372 -2567 395 -2683 l11 -54 91 6 c316 23 588 46 1377 116 487 44
933 82 992 86 60 4 112 12 116 18 5 6 46 108 91 226 578 1501 1190 3087 1401
3630 1060 2729 2026 5253 2032 5307 5 49 -51 60 -247 46z"/>
<path d="M5875 14123 c-140 -7 -608 -46 -830 -68 -299 -30 -1073 -100 -1770
-160 -910 -78 -2104 -191 -2112 -199 -11 -10 -67 -410 -157 -1121 -58 -451
-184 -1430 -280 -2175 -566 -4367 -716 -5562 -716 -5687 0 -32 2 -33 39 -33
149 0 4331 361 4816 415 172 20 264 35 270 45 20 32 200 1359 221 1633 l7 87
-50 0 c-28 0 -133 -9 -234 -20 -101 -11 -542 -54 -979 -95 -437 -41 -1008 -96
-1269 -121 -260 -24 -475 -43 -477 -41 -10 10 103 986 171 1487 47 348 54 380
73 380 8 0 149 13 311 30 163 16 620 59 1016 95 1015 93 1196 114 1273 152 37
18 37 18 45 98 4 44 24 215 43 380 100 864 135 1217 122 1230 -3 4 -104 -1
-224 -10 -210 -15 -442 -36 -1629 -144 -297 -27 -579 -52 -627 -56 l-88 -7 0
36 c0 68 152 1442 191 1721 6 48 15 75 28 86 11 9 57 23 103 32 202 40 419 61
2326 231 211 18 385 36 388 38 2 3 36 268 74 589 38 321 86 710 105 863 22
172 32 283 26 289 -11 11 -87 27 -121 25 -14 -1 -52 -3 -85 -5z"/>
<path d="M24130 5723 c-460 -12 -1585 -131 -2400 -254 -2008 -301 -4070 -791
-7905 -1878 -3322 -941 -4615 -1247 -6320 -1495 -918 -134 -1477 -189 -2195
-216 -333 -13 -1449 -13 -1750 0 -1140 48 -1991 160 -3120 410 -449 99 -420
94 -420 80 0 -61 641 -567 1042 -822 388 -247 913 -506 1423 -703 1072 -413
2342 -706 3425 -790 687 -53 1675 -59 2425 -14 517 30 906 72 1436 154 1177
183 2106 385 3229 705 1019 290 2002 612 4105 1343 4071 1416 5757 1911 7885
2317 1582 302 2567 380 4836 380 915 0 1218 6 1173 22 -145 54 -821 251 -1144
334 -574 146 -1740 337 -2340 383 -184 14 -589 30 -1085 41 -367 9 -2025 11
-2300 3z"/>
</g>
</svg>
