<?xml version="1.0" standalone="no"?>
<!DOCTYPE svg PUBLIC "-//W3C//DTD SVG 20010904//EN"
 "http://www.w3.org/TR/2001/REC-SVG-20010904/DTD/svg10.dtd">
<svg version="1.0" class="evape_logo" xmlns="http://www.w3.org/2000/svg"
 width="945.000000pt" height="365.000000pt" viewBox="0 0 945.000000 365.000000"
 preserveAspectRatio="xMidYMid meet">

<g transform="translate(0.000000,365.000000) scale(0.100000,-0.100000)"
fill="#225577" stroke="none">
<path d="M263 3502 l-133 -3 0 -999 0 -1000 698 2 697 3 3 218 2 217 -430 0
-430 0 2 178 3 177 373 3 372 2 0 210 0 210 -372 2 -373 3 -3 167 -2 168 412
2 413 3 3 223 2 224 -552 -4 c-304 -2 -613 -4 -685 -6z"/>
<path d="M1924 3503 l-252 -3 19 -58 c39 -122 458 -1311 581 -1647 16 -44 39
-111 52 -150 13 -38 31 -87 40 -108 l16 -37 386 2 386 3 13 35 c7 19 29 85 48
145 60 189 344 1053 469 1430 66 198 121 366 122 373 1 10 -60 13 -276 15
l-277 2 -36 -115 c-20 -63 -45 -140 -55 -170 -10 -30 -37 -116 -61 -190 -23
-74 -61 -193 -84 -265 -23 -71 -59 -184 -80 -250 -49 -156 -168 -519 -172
-524 -2 -2 -6 -2 -9 2 -3 3 -119 345 -258 759 l-251 753 -35 0 c-19 1 -148 -1
-286 -2z"/>
<path d="M4312 3495 c-4 -5 -16 -37 -28 -70 -31 -90 -591 -1666 -630 -1775
-19 -52 -39 -107 -44 -123 l-9 -27 272 2 272 3 48 140 c27 77 55 159 64 183
l15 42 385 -2 386 -3 14 -40 c8 -22 37 -103 63 -180 l48 -140 281 -3 c196 -2
281 1 281 8 0 6 -9 32 -19 58 -23 55 -113 295 -176 467 -24 66 -60 163 -80
215 -20 52 -47 124 -60 160 -13 36 -40 108 -60 160 -20 52 -47 124 -60 160
-13 36 -40 108 -60 160 -20 52 -47 124 -60 160 -13 36 -40 108 -60 160 -20 52
-52 139 -72 192 l-35 97 -335 3 c-215 2 -337 -1 -341 -7z m391 -645 c53 -146
187 -554 183 -558 -2 -1 -111 -1 -244 0 l-241 3 75 220 c42 121 89 258 105
305 16 47 37 106 46 133 11 29 20 42 24 35 4 -7 27 -69 52 -138z"/>
<path d="M5920 2503 l0 -1003 265 0 265 0 0 274 0 273 253 7 c279 8 347 15
449 51 281 98 445 320 474 640 7 73 -12 203 -43 300 -88 277 -322 438 -653
451 -69 3 -324 6 -568 7 l-442 2 0 -1002z m979 557 c123 -44 181 -133 181
-280 0 -123 -41 -206 -125 -256 -76 -44 -134 -54 -327 -54 l-178 0 0 303 c0
167 3 307 8 311 4 5 90 6 192 3 159 -4 194 -8 249 -27z"/>
<path d="M7870 2505 l0 -1000 92 2 c51 1 380 2 731 3 l637 0 0 215 0 215 -460
0 -460 0 2 178 3 177 408 3 407 2 0 210 0 210 -410 0 -410 0 0 170 0 170 458
2 457 3 0 220 0 220 -727 0 -728 0 0 -1000z"/>
<path d="M2553 1192 l-2423 -2 0 -557 0 -556 4598 6 c2528 3 4598 6 4600 7 1
0 2 250 2 555 l0 555 -2177 -2 c-1198 -2 -3268 -4 -4600 -6z m1780 -315 c57
-24 113 -85 129 -141 16 -56 13 -185 -5 -228 -20 -49 -73 -105 -121 -131 -32
-17 -59 -22 -121 -22 -124 0 -200 47 -248 154 -26 59 -21 210 8 256 81 130
216 172 358 112z m1797 9 c22 -10 25 -18 28 -69 2 -31 0 -57 -4 -57 -4 0 -27
10 -51 21 -81 39 -173 14 -216 -59 -25 -43 -25 -142 0 -185 42 -71 134 -98
220 -62 19 8 37 15 39 15 2 0 4 -25 4 -55 0 -51 -2 -56 -27 -67 -16 -6 -66
-11 -113 -12 -77 -1 -90 2 -139 29 -38 21 -65 46 -89 83 -32 48 -36 61 -40
138 -5 98 11 154 62 212 66 75 233 111 326 68z m-5245 -40 l0 -49 -105 -1
-105 -1 0 -55 0 -55 98 -3 98 -3 -3 -47 -3 -47 -98 -3 -98 -3 3 -57 3 -57 108
-3 107 -3 0 -49 0 -50 -170 0 -170 0 0 263 c0 145 3 267 7 271 4 3 79 5 167 4
l161 -3 0 -49z m345 -166 l0 -220 100 0 100 0 0 -50 0 -50 -160 0 -160 0 0
270 0 270 60 0 60 0 0 -220z m720 168 l0 -53 -97 0 -98 0 -3 -57 -3 -58 89 0
90 0 4 -42 c3 -24 3 -46 1 -50 -2 -5 -44 -8 -94 -8 l-89 0 0 -60 0 -60 105 0
105 0 0 -50 0 -50 -165 0 -165 0 0 270 0 270 160 0 160 0 0 -52z m575 38 c34
-15 35 -16 35 -75 l0 -60 -47 25 c-69 37 -140 31 -189 -16 -81 -79 -66 -237
28 -286 39 -20 112 -17 158 6 22 11 42 20 45 20 3 0 5 -29 5 -65 l0 -64 -37
-8 c-21 -4 -72 -8 -113 -8 -63 1 -83 5 -128 30 -55 30 -103 81 -123 131 -17
43 -15 182 3 225 24 55 78 110 133 135 60 28 175 33 230 10z m615 -42 l0 -56
-65 4 -65 3 -2 -215 -3 -215 -57 -3 -58 -3 -2 183 c0 101 -1 198 -1 216 0 17
-5 32 -11 33 -6 0 -39 0 -73 -1 l-63 -1 0 49 c0 27 3 52 7 55 3 4 93 7 200 7
l193 0 0 -56z m526 27 c105 -47 115 -218 16 -289 l-26 -20 59 -88 c32 -49 63
-95 68 -101 7 -10 -5 -13 -56 -13 l-66 0 -62 90 c-48 71 -66 90 -85 90 -13 0
-27 0 -31 0 -5 0 -8 -39 -9 -88 l0 -87 -57 -3 -57 -3 0 272 0 272 131 -7 c96
-4 143 -11 175 -25z m1248 -144 l121 -168 3 170 2 171 55 0 55 0 0 -270 0
-270 -52 0 -53 1 -120 170 -120 171 -3 -171 -2 -171 -55 0 -55 0 0 133 c-1 72
-3 187 -6 255 -3 68 -3 130 0 138 4 11 19 14 57 12 l52 -3 121 -168z m596 -97
l0 -270 -60 0 -60 0 0 270 0 270 60 0 60 0 0 -270z m1288 173 c54 -166 92
-295 92 -316 0 -11 3 -17 7 -13 8 7 64 187 107 341 l23 80 59 1 c32 1 62 0 65
-2 3 -2 -9 -47 -28 -101 -19 -54 -45 -129 -58 -168 -99 -290 -83 -266 -169
-263 l-71 3 -19 55 c-10 30 -52 147 -93 259 -40 112 -73 208 -73 213 0 4 28 8
63 8 l63 0 32 -97z m810 45 c34 -83 162 -462 162 -480 0 -4 -26 -8 -58 -8
l-58 0 -13 49 c-7 28 -18 55 -26 61 -8 7 -49 10 -105 8 l-93 -3 -20 -57 -21
-58 -63 0 c-35 0 -63 2 -63 5 0 2 11 33 24 67 37 96 101 274 131 363 14 44 28
86 30 93 3 8 28 12 78 12 l73 0 22 -52z m664 20 c45 -21 59 -33 77 -70 27 -57
27 -112 -1 -168 -30 -58 -92 -91 -185 -97 l-68 -5 0 -82 0 -81 -57 -3 -58 -3
0 272 0 272 118 -5 c99 -4 128 -9 174 -30z m633 -22 l0 -49 -102 2 -103 2 0
-60 0 -61 96 0 95 0 -3 -47 -3 -48 -92 -3 -93 -3 0 -59 0 -60 110 0 110 0 0
-50 0 -50 -170 0 -170 0 0 270 0 270 163 -2 162 -3 0 -49z"/>
<path d="M4148 785 c-64 -36 -95 -176 -55 -252 34 -65 107 -91 180 -64 84 32
101 225 27 296 -36 34 -110 44 -152 20z"/>
<path d="M3478 794 c-5 -4 -8 -40 -8 -81 l0 -73 58 0 c48 0 62 4 80 23 27 29
29 77 4 107 -14 18 -32 24 -73 28 -30 2 -57 0 -61 -4z"/>
<path d="M7487 687 c-38 -118 -39 -117 33 -117 41 0 60 4 60 13 0 6 -11 44
-25 82 -13 39 -25 78 -25 88 0 38 -17 12 -43 -66z"/>
<path d="M8100 714 l0 -87 52 5 c38 4 57 12 70 28 20 24 24 71 8 100 -11 21
-60 40 -101 40 l-29 0 0 -86z"/>
</g>
</svg>
